<?xml version="1.0" encoding="UTF-8"?>
<svg id="Layer_1" xmlns="http://www.w3.org/2000/svg" version="1.1" viewBox="0 0 1080 306.79">
  <!-- Generator: Adobe Illustrator 30.3.0, SVG Export Plug-In . SVG Version: 2.1.3 Build 182)  -->
  <defs>
    <style>
      .st0 {
        fill: #ff87a2;
      }
    </style>
  </defs>
  <path class="st0" d="M166.56,273.44c-.09-.67-1.36-3.64-1.94-4.53-34.83,42.8-100.94,48.95-138.8,6.49-62.27-69.82-3.82-180.26,89.38-165.9,96.27,14.82,127.82,200.4,228.07,181.12,81.03-15.58,53.02-147.76-19.51-165.3-50.41-12.19-85.54,24.58-81.96,74.18.65,9,4.23,17.65,4.53,26.6-6.47-8.72-19.64-21.1-23.8-30.67-5.67-13.07,9.91-40.74,18.59-51.05,47.19-56.05,136.35-43.84,166.91,22.49,31.04,67.37-22.85,145.25-96.83,139.63-83.32-6.33-119.63-124.51-177.74-171.16-55.06-44.2-115.74,6.82-110.85,71.94,4.19,55.88,64.45,105.22,116.6,69.94,7.12-4.81,26.05-26.61,26.05-34.91v-59.01c2.5-.59,2.5.91,3.66,2.18,10.13,11.11,18.45,27.41,28.18,39.27,5.02,24.57-9.94,60.68,14.22,76.58l-1.31,2.59h-41.5l-1.95-1.95c-.88-8.94,1.2-19.9,0-28.53Z"/>
  <path class="st0" d="M870.85,174.22h-31.13c4.46-44.62-34.62-71.24-73.31-45.43-29.85,19.91-34.09,71.74-24.01,103.19,16.56,51.65,78.8,63.83,120.56,33.57,6.36-4.61,22.17-19.42,22.29-27.1.07-4.64-2.4-10.76-2.7-15.61-2.07-33.59,8.84-67.61,34.39-90.09,47.97-42.21,127.5-26.99,129.03,44.07l-128.18,2.16c-10.01,53.01,20.18,107.68,79.37,102.72,30.95-2.59,53.14-24.15,69.33-48.7,3.79-5.74,5.12-15.79,13.2-13.39,2.86,2.76-13.71,29.23-16.58,33.36-11.36,16.37-26.05,31.21-43.97,40.34-45.47,23.15-107.87,6.51-129.49-41.26l-21.34,25.33c-60.16,53.01-158.14,23.98-163.46-61.02-3.12-49.86,29.36-97.8,79.96-105.49,48.04-7.3,81.61,13.61,86.05,63.35ZM1017.41,169.03c-.59-19.93-8.58-40.09-28.56-47.32-33.98-12.3-62.85,15.21-68.72,47.32h97.28Z"/>
  <path class="st0" d="M650.35,245.56c-3.12-.69-2.1.54-2.9,1.69-20.36,29.52-36.58,58.87-78.37,59.18-65.06.49-71.61-73.46-10.8-99.12,28.63-12.08,60.89-18.97,90.2-29.13,4.35-53.02-53.25-62.81-90.11-38.23-7.77,5.18-18.01,19.09-23.46,21.94-3.84,2.02-5.84-1.25-4.57-4.47,3-7.59,27.55-27.77,35.3-32.25,41.67-24.07,109.09-12.73,114.52,43.21,3.57,36.69-3.54,78.21,1.42,115.31,1.11,8.26,6.81,12.16,12.22,17.62l-1.31,2.59h-37.61c-.53,0-4.54-5.16-4.54-5.84v-52.53ZM650.35,216.38c.82-9.18,0-20.37,0-29.83,0-.78-1.86-1.82-2.98-1.75-3.2.19-16.98,5.74-21.37,7.23-20.59,7-65.9,20.3-77.07,38.37-9.97,16.14-5.75,43.15,12.34,51.71,38.69,18.31,85.93-30.35,89.08-65.73Z"/>
  <path class="st0" d="M577.72,57.49l-9.02-.06c-7.73-53.4-79.26-65.31-101.46-13.79-1.81,4.19-6.25,17.07-6.25,20.99v42.15h50.58l-.6,7.84-1.5,1.13c-1.1.19-2.07-1.19-2.45-1.19h-44.1l-1.95,1.95v162.13c0,9.79,11.96,17.89,19.45,22.06l-1.94,3.23h-67.45l-1.94-3.22c4.97-4.94,11.17-5.75,15.55-11.7,1.56-2.11,5.2-9.57,5.2-11.66V114.56h-23.35v-7.78h23.35v-25.29c0-13.56,9.73-36.03,17.86-46.99,29.97-40.45,89.58-43.86,130-17.86v40.86Z"/>
  <path class="st0" d="M197.69,45.82v112.84c-3.06.81-2.19-.78-2.97-1.66-8.91-10.08-17.68-20.25-27.49-29.49-2.42-15.11,2.49-36.28-6.07-49.7-1.77-2.77-7.58-6.71-7.59-9.27l44.11-22.71Z"/>
</svg>